<?xml version="1.0" encoding="UTF-8" standalone="no"?>
<!-- Created with Inkscape (http://www.inkscape.org/) -->

<svg
   width="297mm"
   height="297mm"
   viewBox="0 0 297 297"
   version="1.1"
   id="svg1"
   inkscape:version="1.4.2 (f4327f4, 2025-05-13)"
   sodipodi:docname="logo.svg"
   xmlns:inkscape="http://www.inkscape.org/namespaces/inkscape"
   xmlns:sodipodi="http://sodipodi.sourceforge.net/DTD/sodipodi-0.dtd"
   xmlns="http://www.w3.org/2000/svg"
   xmlns:svg="http://www.w3.org/2000/svg">
  <sodipodi:namedview
     id="namedview1"
     pagecolor="#ffffff"
     bordercolor="#000000"
     borderopacity="0.25"
     inkscape:showpageshadow="2"
     inkscape:pageopacity="0.0"
     inkscape:pagecheckerboard="true"
     inkscape:deskcolor="#d1d1d1"
     inkscape:document-units="mm"
     inkscape:zoom="0.17972959"
     inkscape:cx="-50.075227"
     inkscape:cy="826.24124"
     inkscape:window-width="1920"
     inkscape:window-height="1009"
     inkscape:window-x="1912"
     inkscape:window-y="-8"
     inkscape:window-maximized="1"
     inkscape:current-layer="g3" />
  <defs
     id="defs1" />
  <ellipse
     style="fill:#eadccc;fill-opacity:1;stroke-width:3.2609"
     id="path2"
     cx="148.43858"
     cy="147.91811"
     rx="147.39799"
     ry="147.39764" />
  <g
     inkscape:label="Layer 1"
     inkscape:groupmode="layer"
     id="layer1">
    <g
       id="g3">
      <g
         id="g2"
         transform="translate(2.9802579,-1.7893358)">
        <path
           style="fill:#004b42;fill-opacity:1;stroke-width:0.564828"
           id="path6"
           d="m 198.94686,150.38671 c 1.25182,-0.4665 2.59273,-0.74118 3.75507,-1.39942 13.79354,-7.81231 27.28437,-21.36165 36.80973,-33.87227 2.50884,-3.29488 4.62382,-6.87165 6.93572,-10.30748 2.43669,-5.720522 6.00412,-11.322622 4.73868,-17.967519 -1.74033,-9.137345 -7.54734,-10.56937 -16.94922,-6.22961 -8.52575,3.935397 -20.71043,22.924239 -24.85555,28.549169 -14.23438,22.31769 -26.22612,45.94662 -37.89876,69.66938 -4.36198,8.86512 -10.53409,22.26344 -15.35036,31.45153 -1.30542,2.49032 -2.79021,4.88249 -4.18528,7.32374 -3.73821,6.55684 5.53444,11.84351 9.27291,5.2867 v 0 c 1.48898,-2.6177 3.06919,-5.18577 4.46742,-7.85317 4.84453,-9.24163 10.92506,-22.45513 15.33803,-31.42645 8.3533,-16.98162 28.59125,-52.20126 26.27036,-50.34651 -5.40853,4.32205 6.99338,-11.9519 10.70191,-17.80501 4.00105,-5.51857 7.70931,-11.26164 12.00286,-16.555732 2.46906,-3.04448 5.34912,-9.031955 9.08074,-7.831428 4.22191,1.358368 -7.17368,17.36993 -7.20429,17.41041 -8.56793,14.51773 -19.8151,21.61014 -33.05931,30.56211 -0.66996,0.42002 -1.45746,0.61454 -2.18609,0.9218 -7.36802,1.63728 -5.05241,12.05707 2.31543,10.41976 z"
           sodipodi:nodetypes="ccscsscsscssssscsssscc" />
        <path
           id="path10"
           style="fill:#004b42;fill-opacity:1;stroke-width:0.573914"
           d="m 41.002625,200.26979 c 0,0 -7.149476,5.34489 -8.734172,9.68434 -1.461339,3.02402 -2.210854,4.8073 -2.017333,7.99426 0.189442,8.8264 6.67521,12.51789 14.794543,13.21112 13.575935,-0.49326 -6.995878,-5.9551 -5.060364,-15.10963 0.888852,-4.2041 2.158441,-4.42918 4.332276,-6.58108 3.235727,-3.27992 2.168632,-4.11577 0.122539,-6.71861 -1.038085,-1.32055 -2.221312,-2.21297 -2.752959,-2.57965 -0.179753,-0.12403 -0.684391,0.0993 -0.684391,0.0993 z m -0.638898,30.09131 c 1.96392,0.38893 4.96652,1.07452 6.94953,0.79908 11.28941,-1.56836 16.30555,-3.57812 27.093492,-8.28716 17.533231,-7.65338 31.002271,-14.89185 47.364611,-25.0476 7.64005,-4.74221 14.95172,-9.99428 22.42774,-14.99139 11.30947,-8.63363 22.88734,-15.8177 31.21728,-27.64581 2.32988,-3.30861 4.63122,-7.10759 4.8005,-11.15082 0.45959,-10.97762 -16.89007,-34.22316 -26.10893,-34.78719 -14.60598,16.18075 -8.33744,9.08396 -28.95097,19.79072 -7.306,3.3093 -71.817274,55.2119 -32.95352,29.86587 20.4348,-13.32753 41.07345,-26.34426 61.63683,-39.47165 15.98416,-10.11998 31.78566,-20.523522 47.67359,-30.792174 1.03199,-0.666952 12.57612,-8.153238 15.18266,-9.508254 6.62595,-3.4445 5.12112,-4.70975 4.42735,-6.379223 -1.13055,-2.720444 -5.12418,-4.593126 -5.57523,-4.431841 v 0 c -1.46014,0.560146 -2.98955,0.965453 -4.38034,1.68031 -2.51049,1.290248 -14.52578,9.078342 -15.47722,9.69334 -15.86194,10.251426 -31.63676,20.637972 -47.59432,30.740912 -20.6127,13.15884 -41.30551,26.2007 -61.78451,39.56752 -4.855128,3.16903 -9.787576,6.22893 -14.50159,9.60452 -3.012445,2.15715 -8.022161,3.32551 -8.65342,6.97647 -0.606707,3.50915 2.502514,7.98599 5.908035,8.90148 4.383353,0.19363 78.795175,-65.74113 86.335275,-57.29312 6.26751,6.64288 14.20721,12.13888 14.8906,21.91538 0.10456,2.7583 -1.13638,5.55635 -2.70761,7.82585 -7.78023,11.23808 -18.6111,17.83549 -29.32025,26.02621 -7.27707,4.87324 -14.39449,9.9932 -21.83066,14.61974 -16.25193,10.11123 -28.55668,16.68489 -45.905875,24.34674 -9.506226,4.19834 -28.958831,15.5555 -30.778814,4.30246 -0.399094,-2.46763 -11.74542,10.68153 0.615766,13.12963 z"
           sodipodi:nodetypes="ssscscsscsssscssccscssssssccssscccscsssss" />
      </g>
    </g>
  </g>
</svg>
