<?xml version="1.0" encoding="UTF-8" standalone="no"?>
<!-- Created with Inkscape (http://www.inkscape.org/) -->

<svg
   width="297mm"
   height="297mm"
   viewBox="0 0 297 297"
   version="1.1"
   id="svg1"
   inkscape:version="1.4.2 (f4327f4, 2025-05-13)"
   sodipodi:docname="logo.svg"
   xmlns:inkscape="http://www.inkscape.org/namespaces/inkscape"
   xmlns:sodipodi="http://sodipodi.sourceforge.net/DTD/sodipodi-0.dtd"
   xmlns="http://www.w3.org/2000/svg"
   xmlns:svg="http://www.w3.org/2000/svg">
  <sodipodi:namedview
     id="namedview1"
     pagecolor="#ffffff"
     bordercolor="#000000"
     borderopacity="0.25"
     inkscape:showpageshadow="2"
     inkscape:pageopacity="0.0"
     inkscape:pagecheckerboard="0"
     inkscape:deskcolor="#d1d1d1"
     inkscape:document-units="mm"
     inkscape:zoom="0.17972959"
     inkscape:cx="408.94769"
     inkscape:cy="948.64737"
     inkscape:window-width="1920"
     inkscape:window-height="1009"
     inkscape:window-x="1912"
     inkscape:window-y="-8"
     inkscape:window-maximized="1"
     inkscape:current-layer="layer1" />
  <defs
     id="defs1" />
  <g
     inkscape:label="Layer 1"
     inkscape:groupmode="layer"
     id="layer1">
    <path
       style="fill:#004b42;fill-opacity:1;stroke-width:0.710666"
       id="path6"
       d="m 222.21308,151.79977 c 1.57503,-0.58695 3.26217,-0.93256 4.72463,-1.76075 17.355,-9.82945 34.32913,-26.87719 46.31393,-42.61804 3.1566,-4.14561 5.81767,-8.645889 8.7265,-12.968843 3.06584,-7.197555 7.55437,-14.246093 5.96219,-22.606694 -2.18967,-11.496589 -9.49604,-13.298359 -21.32547,-7.838083 -10.72708,4.951509 -26.05782,28.843233 -31.2732,35.920508 -17.90968,28.080082 -32.99766,57.809942 -47.68413,87.657872 -5.48824,11.15407 -13.25399,28.01181 -19.31381,39.57225 -1.64247,3.13331 -3.51064,6.14315 -5.2659,9.21471 -4.70341,8.24981 6.96342,14.90149 11.66716,6.65172 v 0 c 1.87343,-3.29358 3.86165,-6.52472 5.62088,-9.88084 6.0954,-11.6278 13.7459,-28.253 19.29829,-39.5407 10.5101,-21.36623 35.97346,-65.67951 33.05331,-63.34587 -6.805,5.438 8.79905,-15.03786 13.46512,-22.40224 5.03411,-6.94344 9.69984,-14.169374 15.10199,-20.830377 3.10656,-3.830568 6.73023,-11.363991 11.42535,-9.85349 5.312,1.70909 -9.0259,21.854808 -9.06442,21.905734 -10.78015,18.266193 -24.93132,27.189833 -41.59515,38.453193 -0.84294,0.52848 -1.83377,0.77322 -2.75054,1.15981 -9.27043,2.06002 -6.35694,15.17019 2.91327,13.11013 z"
       sodipodi:nodetypes="ccscsscsscssssscsssscc" />
    <path
       id="path10"
       style="fill:#004b42;fill-opacity:1;stroke-width:0.722098"
       d="m 23.487964,214.56255 c 0,0 -8.995456,6.72493 -10.989316,12.18482 -1.838655,3.8048 -2.7816923,6.04853 -2.5382049,10.05835 0.2383549,11.10537 8.3987349,15.74999 18.6144629,16.62221 17.081215,-0.62061 -8.802199,-7.49269 -6.36694,-19.01091 1.118353,-5.28958 2.715748,-5.57278 5.450862,-8.2803 4.071185,-4.12678 2.728568,-5.17845 0.154178,-8.45334 -1.306116,-1.66151 -2.79485,-2.78435 -3.463767,-3.2457 -0.226165,-0.15606 -0.8611,0.1249 -0.8611,0.1249 z m -0.80386,37.86082 c 2.471001,0.48935 6.248866,1.35196 8.743885,1.0054 14.204312,-1.9733 20.515609,-4.50197 34.088975,-10.42688 22.060266,-9.62947 39.006986,-18.7369 59.594056,-31.51485 9.6127,-5.96663 18.81222,-12.57478 28.21855,-18.86212 14.22955,-10.86283 28.7968,-19.90181 39.27751,-34.78391 2.93146,-4.16289 5.82699,-8.94276 6.03999,-14.02994 0.57824,-13.81202 -21.25105,-43.05951 -32.85021,-43.76918 -18.37722,20.35859 -10.49015,11.42943 -36.42605,24.90065 -9.19241,4.16376 -90.360356,69.4675 -41.462055,37.57717 25.711015,-16.76866 51.678535,-33.14629 77.551335,-49.66314 20.11124,-12.73294 39.99265,-25.822654 59.98281,-38.742653 1.29845,-0.839158 15.82325,-10.258387 19.1028,-11.963266 8.33676,-4.333862 6.44338,-5.925798 5.57047,-8.026325 -1.42245,-3.422857 -6.44723,-5.779061 -7.01474,-5.576133 v 0 c -1.83715,0.704775 -3.76144,1.21473 -5.51134,2.114162 -3.15869,1.623387 -18.2763,11.422353 -19.47339,12.19614 -19.95746,12.898324 -39.80531,25.966657 -59.88308,38.678155 -25.93486,16.55642 -51.97051,32.96567 -77.737157,49.78377 -6.108708,3.98727 -12.314704,7.83723 -18.245867,12.08439 -3.790253,2.71412 -10.093466,4.18415 -10.887714,8.77777 -0.763358,4.41522 3.148656,10.04797 7.433477,11.19983 5.515124,0.24363 99.139921,-82.71536 108.626861,-72.08609 7.88578,8.35806 17.87549,15.27311 18.73534,27.5739 0.13158,3.47049 -1.4298,6.99098 -3.40671,9.84646 -9.78907,14.13974 -23.41645,22.44059 -36.89068,32.74614 -9.156,6.1315 -18.11113,12.57341 -27.46731,18.39451 -20.448146,12.72194 -35.929947,20.99291 -57.758671,30.63302 -11.960713,5.28235 -36.435941,19.57191 -38.72584,5.41335 -0.502139,-3.10477 -14.7780634,13.43948 0.774755,16.51967 z"
       sodipodi:nodetypes="ssscscsscsssscssccscssssssccssscccscsssss" />
  </g>
</svg>
