<?xml version="1.0" encoding="UTF-8" standalone="no"?>
<!-- Created with Inkscape (http://www.inkscape.org/) -->

<svg
   width="297mm"
   height="210mm"
   viewBox="0 0 297 210"
   version="1.1"
   id="svg1"
   inkscape:version="1.4.2 (f4327f4, 2025-05-13)"
   sodipodi:docname="wordmark.svg"
   xmlns:inkscape="http://www.inkscape.org/namespaces/inkscape"
   xmlns:sodipodi="http://sodipodi.sourceforge.net/DTD/sodipodi-0.dtd"
   xmlns="http://www.w3.org/2000/svg"
   xmlns:svg="http://www.w3.org/2000/svg">
  <sodipodi:namedview
     id="namedview1"
     pagecolor="#ffffff"
     bordercolor="#000000"
     borderopacity="0.25"
     inkscape:showpageshadow="2"
     inkscape:pageopacity="0.0"
     inkscape:pagecheckerboard="0"
     inkscape:deskcolor="#d1d1d1"
     inkscape:document-units="mm"
     inkscape:zoom="0.35945918"
     inkscape:cx="1217.1062"
     inkscape:cy="819.28635"
     inkscape:window-width="1920"
     inkscape:window-height="1009"
     inkscape:window-x="1912"
     inkscape:window-y="-8"
     inkscape:window-maximized="1"
     inkscape:current-layer="layer1" />
  <defs
     id="defs1" />
  <g
     inkscape:label="Layer 1"
     inkscape:groupmode="layer"
     id="layer1">
    <path
       style="fill:#000000;stroke-width:0.346043"
       id="path1"
       d="m 105.04417,117.91749 c -1.03633,-0.0835 -2.06942,-0.24365 -3.1092,-0.25023 -6.738587,-0.0423 -13.889306,1.375 -19.745082,4.82353 -1.604228,0.94474 -3.003633,2.20063 -4.505506,3.30094 -1.090638,1.19921 -2.348276,2.26562 -3.272194,3.59768 -1.267161,1.82724 -3.053899,5.47507 -1.686072,7.87553 0.86263,1.51422 2.377684,2.81147 4.048146,3.30859 3.674343,1.09352 7.82518,-1.66184 10.760196,-3.06937 8.759615,-6.32149 2.354174,-1.49239 10.490115,-8.16285 1.18816,-0.97421 2.338487,-2.00489 3.615087,-2.86019 0.52171,-0.34962 2.30292,-0.45113 1.73843,-0.72669 -0.46366,-0.22635 -2.57942,0.62215 -3.29142,0.88844 -0.165407,3.8829 -1.200597,11.20719 1.08109,14.53424 0.7918,1.15461 1.90049,2.13719 3.13812,2.79163 0.54671,0.28909 3.1265,0.54388 5.296,0.16683 2.04489,-0.35538 3.68428,-1.33245 4.22355,-1.44467 4.10598,-2.70201 -4.45808,-5.70837 -5.25573,-5.26419 -0.0653,0.0362 0.14035,0.83538 -0.0771,0.96555 -0.45531,0.27287 -1.08137,0.62365 -1.1927,0.51397 -1.0035,-0.98956 -1.03082,-3.91236 -1.04729,-4.85444 -0.0131,-0.38681 1.51998,-12.2534 1.52873,-12.44683 -0.25112,-1.81017 -1.25575,0.28729 -2.76324,-0.6363 -4.09388,-2.50819 -4.58122,-1.7921 -8.246967,1.78137 -2.12422,2.07074 -7.575413,6.64948 -9.545689,8.09477 -1.204463,1.07524 -5.569464,4.54931 -6.962941,4.49524 -3.069453,-0.11908 -5.337721,-7.52578 16.48152,-12.3957 1.33681,2.05419 1.4606,1.57487 6.829507,1.34502 4.50562,1.03976 5.97608,-5.33218 1.47041,-6.37192 z"
       sodipodi:nodetypes="csscssscssscssscsscccsscssccc" />
    <path
       style="fill:#000000;stroke-width:0.346043"
       id="path2"
       d="m 134.19186,116.68367 c -5.71582,-1.0926 -11.78244,0.84739 -16.46477,4.1648 -1.31858,0.93422 -2.45801,2.09851 -3.68707,3.14778 -1.85233,2.208 -4.12045,4.49515 -5.16257,7.28436 -1.52761,4.08877 -0.66429,8.6128 3.198,11.09283 1.20617,0.77458 2.55235,0.90343 4.08859,1.25571 1.82007,0.11045 3.39448,0.041 5.02672,-0.40727 3.23242,-0.88762 7.07381,-3.10021 9.88392,-4.80563 3.80959,-2.3119 7.13812,-5.95785 10.76844,-8.53581 0.27986,-0.19181 0.8548,-1.21129 1.73017,-2.05746 1.55679,-1.50471 2.85129,-3.22842 3.3058,-3.53981 3.81379,-2.61471 -2.43568,-2.9041 -6.24997,-0.28938 v 0 c -0.7638,0.52385 -1.52761,1.04769 -2.29141,1.57156 -6.42572,4.56401 -12.88223,9.58561 -20.51162,11.91548 -0.74835,-0.0306 -1.82763,0.066 -2.52082,-0.41472 -2.83505,-1.96604 1.94759,-6.71277 3.03731,-8.14519 0.904,-0.81433 1.73789,-1.71394 2.71202,-2.44294 3.1532,-2.35974 7.3622,-4.0149 11.34077,-3.50652 4.44614,1.27032 6.24264,-5.01748 1.79649,-6.28779 z"
       sodipodi:nodetypes="cscsscsscscssccscscc" />
    <path
       style="fill:#000000;stroke-width:0.346043"
       id="path3"
       d="m 147.17349,119.60793 c -1.58736,0.66049 -1.30864,0.33118 -4.37378,2.05733 -1.22917,0.78522 -5.67897,4.42167 -6.45418,5.65709 -0.37375,1.41414 -0.7579,2.04676 -0.81532,3.50835 -0.20585,5.24121 3.48194,9.80687 8.48657,11.20924 5.60126,1.56954 7.67324,0.20265 13.0215,-1.26929 1.76243,-1.03876 3.69206,-1.83534 5.28703,-3.11626 4.37743,-3.51541 6.65407,-8.80084 2.947,-13.84083 -2.42868,-3.30208 -4.79166,-3.71855 -8.36126,-4.80364 -2.78841,-0.39244 -2.12544,-0.0514 -4.68733,0.15891 -4.60701,0.39603 -20.56785,12.76356 -10.01248,8.2978 l 5.80219,-2.27584 3.14173,-1.10557 c 0.19316,-0.068 0.78004,-0.13799 3.17607,-0.007 0.83787,0.0462 0.6908,0.10496 3.35403,0.59372 2.97699,2.42376 2.01811,1.81002 2.76352,3.15719 1.77622,3.21039 -3.68144,5.55555 -5.30901,6.68279 -1.46086,0.50433 -2.86867,1.20302 -4.38282,1.51297 -1.24706,0.25532 -2.55456,0.34158 -3.8152,0.16524 -1.76839,-0.24735 -4.80633,-1.80974 -5.02922,-3.93569 -0.0589,-0.56665 -0.64832,-8.6964 13.66643,-12.259 4.57758,-0.65395 -0.4542,-1.91363 -5.03178,-1.25968 z"
       sodipodi:nodetypes="cscsscssccscsscscsscccc" />
    <path
       style="fill:#000000;stroke-width:0.346043"
       id="path4"
       d="m 179.94974,77.535071 c -0.20714,0.830163 -0.43343,1.655815 -0.62139,2.490505 -1.6169,7.179151 -3.05311,14.379388 -4.84018,21.523004 -2.1452,8.5751 -3.12922,11.84652 -5.50071,20.28098 -2.17434,7.93764 -13.19702,30.71946 -4.98025,31.13696 16.02588,0.81429 6.57703,-9.5241 4.14805,-5.58942 l -2.40307,3.89276 c -0.6121,0.9915 6.39306,-19.81718 8.57904,-27.8004 2.40479,-8.55662 4.34317,-11.70582 6.5195,-20.40995 1.78082,-7.123053 3.22931,-14.298211 4.8249,-21.460292 0.16313,-0.732124 0.35852,-1.456707 0.53768,-2.185065 1.32879,-4.429042 -4.93487,-6.308124 -6.26357,-1.879082 z"
       sodipodi:nodetypes="ccscssscsscc" />
    <path
       style="fill:#000000;stroke-width:0.346043"
       id="path5"
       d="m 171.30697,130.94258 c 5.01638,-0.42992 10.62775,-1.35252 15.23215,1.33125 0.69746,0.40651 1.19017,1.83963 1.3273,2.74778 -0.27883,0.51003 -0.48676,1.00961 -0.9063,1.41181 -0.86178,0.82604 -1.70141,1.68668 -2.66101,2.39667 -2.79375,2.06683 -6.30871,3.96633 -9.46842,5.35418 -1.48325,0.65153 -3.03796,1.12685 -4.55693,1.69032 -0.97748,0.20675 -1.95502,0.41355 -2.93262,0.62031 -4.5134,1.00522 -3.09184,7.38824 1.42168,6.38302 v 0 c 1.26978,-0.29373 2.53961,-0.58748 3.80957,-0.88124 1.73583,-0.65856 3.51297,-1.21679 5.20735,-1.97569 3.38277,-1.51516 8.45185,-4.21468 11.25311,-6.67927 3.00761,-2.64612 5.67487,-5.76387 5.35314,-10.12755 -0.0878,-1.18701 -1.33659,-4.85623 -5.53116,-7.05599 -5.72235,-3.00104 -12.38067,-2.32295 -18.54221,-1.67895 -4.57026,0.70311 -3.57584,7.16646 0.99435,6.46335 z"
       sodipodi:nodetypes="cscccsccsscsscccc" />
    <path
       style="fill:#000000;stroke-width:0.346043"
       id="path6"
       d="m 233.29279,106.91797 c 0.76693,-0.28579 1.58844,-0.45407 2.30056,-0.85734 8.45062,-4.78624 16.71578,-13.087235 22.5515,-20.751885 1.53703,-2.018609 2.83278,-4.209921 4.24917,-6.314879 1.49285,-3.504687 3.67843,-6.936809 2.90314,-11.007812 -1.0662,-5.597999 -4.62387,-6.47533 -10.38394,-3.816575 -5.2233,2.411024 -12.68825,14.04455 -15.22777,17.490663 -8.72069,13.672959 -16.06744,28.149238 -23.21869,42.682988 -2.67236,5.43123 -6.45372,13.63971 -9.40442,19.2688 -0.79975,1.52571 -1.70941,2.99128 -2.5641,4.4869 -2.29021,4.01706 3.39068,7.25594 5.68105,3.2389 v 0 c 0.91223,-1.60374 1.88035,-3.17707 2.73696,-4.81125 2.96802,-5.66189 6.69326,-13.75715 9.39686,-19.25343 5.11766,-10.40381 17.51645,-31.98114 16.09455,-30.844824 -3.31354,2.647902 4.28449,-7.322338 6.55653,-10.908255 2.45125,-3.380951 4.72312,-6.899452 7.35357,-10.142877 1.51267,-1.865205 3.27714,-5.533432 5.56331,-4.79793 1.61929,0.52099 0.35495,1.780664 -0.92233,4.77863 -1.26939,1.909801 -2.42478,3.900503 -3.80816,5.729465 -5.24915,8.894306 -11.82295,13.397871 -19.93703,18.882305 -0.41044,0.257326 -0.89291,0.376486 -1.3393,0.564736 -4.51403,1.00308 -3.09537,7.38678 1.41854,6.38367 z"
       sodipodi:nodetypes="ccscsscsscssssscsscsscc" />
    <path
       style="fill:#000000;stroke-width:0.346043"
       id="path7"
       d="m 234.6166,135.63783 c 1.69329,-0.93431 3.29638,-2.02349 4.94457,-3.03521 1.38344,-1.10382 2.87027,-2.08934 4.15044,-3.31146 2.68754,-2.56573 6.43294,-7.35037 3.2639,-11.24828 -4.23101,-5.20383 -14.21667,-0.33292 -17.0112,2.17948 -3.75256,3.37368 -7.11393,9.30563 -6.84855,14.52407 0.0824,1.62173 0.85168,3.13397 1.27752,4.70097 1.24848,1.12847 2.22942,2.65479 3.74551,3.38543 6.74187,3.24918 14.15689,-2.53988 19.25591,-6.25378 3.72722,-2.73697 11.09038,-19.01627 -3.87053,-5.27092 v 0 c -2.91565,2.16153 -7.81143,6.08099 -11.6183,6.17945 -0.45122,0.0118 -0.89302,-0.1323 -1.33964,-0.19842 -0.32137,-0.57021 -0.87394,-1.06235 -0.96419,-1.71067 -0.44561,-3.20181 1.44306,-8.26723 3.66188,-10.45853 1.89991,-1.87644 5.69149,-3.5985 7.09581,-2.98075 1.45791,0.64119 0.17641,2.38221 -3.91372,5.21701 -1.47585,0.91586 -3.08081,1.80495 -4.59586,2.65421 -5.1389,2.88046 -6.0851,4.51166 -12.01045,4.8863 -4.62411,0 -4.19903,6.22057 0.42506,6.22057 0,0 8.30668,-2.1438 14.35184,-5.47946 z"
       sodipodi:nodetypes="scsssscscssscssscsccss" />
    <path
       style="fill:#000000;stroke-width:0.346043"
       id="path8"
       d="m 249.38417,136.64881 c 5.04733,0.18487 6.90518,-0.94243 11.20501,-3.48955 1.19197,-0.70614 2.30209,-1.5421 3.45333,-2.3132 2.07935,-1.76563 4.73039,-4.58097 6.30816,-7.44145 0.82747,-1.50019 0.77737,-2.8224 0.38088,-4.66963 -0.34962,-1.62891 -1.12028,-2.37665 -2.33456,-3.25263 -1.90681,-1.37555 -5.98328,-1.86401 -8.30874,-1.13605 -6.80724,2.13084 -12.27706,9.56541 -14.80101,15.91032 -0.58256,1.46446 -0.87945,3.027 -1.31915,4.54049 -0.0182,3.68042 -0.82708,5.58916 2.74655,8.27081 2.67368,2.00638 6.41896,1.65687 9.38311,1.03964 3.59602,-0.74875 5.41297,-1.91767 8.64279,-3.53492 1.23092,-0.82994 2.46181,-1.65988 3.69279,-2.48979 3.81862,-2.60783 0.49074,-7.38056 -3.68796,-5.40027 -0.1901,0.0901 -1.8867,0.95476 -2.74461,1.54996 -1.09006,0.56893 -1.42958,0.78065 -2.55543,1.2752 -2.80046,1.2301 -3.17727,1.80241 -5.96078,1.74747 -2.01562,-0.0398 -2.34175,-0.37676 -3.21598,-0.70659 0.29791,-1.1403 0.48035,-2.31725 0.89404,-3.42087 1.55429,-4.14689 4.46969,-10.07449 8.25464,-12.30238 0.64186,-0.37781 1.02954,-0.74285 1.75387,-0.9161 6.07386,-1.33264 0.009,7.33078 -8.59614,10.76243 -1.80792,0.72097 -3.23499,0.17771 -5.41504,0.0814 -4.62411,0 -2.39996,5.8958 2.22421,5.8958 z"
       sodipodi:nodetypes="cscssssscssccscsscsscsccc" />
    <path
       id="path9"
       style="fill:#000000;stroke-width:0.346043"
       d="m 289.65203,77.323801 c -1.52763,-0.12593 -2.95398,0.577839 -3.18089,2.733451 -4.08529,14.921199 -8.20021,28.643398 -13.00931,43.663028 -2.77922,8.85865 -6.01256,17.5627 -8.985,26.35539 -1.48024,4.3807 4.71532,6.47452 6.19573,2.09384 2.98154,-8.8265 6.23044,-17.56318 9.01742,-26.45611 4.94368,-15.44588 8.47095,-29.034181 12.39737,-44.865234 0.25714,-2.443036 0.27726,-3.300753 -2.43532,-3.524365 z"
       sodipodi:nodetypes="sccccccs" />
    <path
       id="path10"
       style="fill:#000000;stroke-width:0.351609"
       d="m 14.305247,135.43545 c 0,0 -4.9646071,3.11514 -5.9354711,5.77371 -0.23686,0.64855 -0.634132,1.8296 -0.810651,2.49569 -0.03442,0.6949 0.125944,1.86645 0.159206,2.56138 0.108421,2.26115 0.920942,3.97347 0.920942,3.97347 2.4011521,3.52281 3.6872171,3.76593 8.1429441,4.12034 7.122832,-0.25879 -1.968897,-6.34731 -3.351534,-8.79211 -0.166967,-0.29523 -0.114443,-0.7973 -0.01437,-0.96959 1.321706,-2.27674 1.58804,-2.20876 2.919841,-3.52712 1.98237,-2.00944 1.328614,-2.52154 0.07507,-4.11616 -0.635982,-0.80903 -1.360887,-1.35578 -1.686601,-1.58042 -0.110122,-0.076 -0.419294,0.0608 -0.419294,0.0608 z m -0.39142,18.43544 c 1.203195,0.23828 3.042741,0.65831 4.257632,0.48956 6.916464,-0.96085 9.989604,-2.19213 16.598843,-5.07713 10.741739,-4.68884 18.993552,-9.1235 29.017952,-15.34542 4.680686,-2.90532 9.160175,-6.12301 13.740374,-9.18447 6.928756,-5.28942 14.021939,-9.69074 19.125285,-16.93723 1.42739,-2.02703 2.8373,-4.35449 2.94104,-6.83157 C 99.876503,94.25918 89.24724,80.017789 83.599286,79.672234 74.650928,89.585378 78.491353,85.237528 65.862453,91.797031 61.386433,93.82448 21.863566,125.62264 45.673469,110.09437 58.192848,101.92925 70.837146,93.954542 83.435307,85.91205 93.228013,79.712035 102.9088,73.3383 112.64255,67.047203 c 0.63225,-0.408609 7.70477,-4.995086 9.30167,-5.825238 4.0594,-2.110274 3.13745,-2.885431 2.71242,-3.908233 -0.69263,-1.666682 -3.13933,-2.813982 -3.41567,-2.715171 v 0 c -0.89456,0.343174 -1.83156,0.591486 -2.68361,1.029443 -1.53806,0.790471 -8.89925,5.561852 -9.48213,5.93863 C 99.357403,67.847175 89.692951,74.2105 79.91654,80.400071 67.288154,88.461845 54.610699,96.451949 42.064224,104.64113 c -2.974494,1.94152 -5.996362,3.81617 -8.884405,5.88423 -1.845576,1.32158 -4.914781,2.03738 -5.301521,4.27413 -0.3717,2.14988 1.533164,4.89263 3.619559,5.4535 2.685464,0.11863 48.273895,-40.276349 52.893349,-35.100675 3.839799,4.069771 8.704057,7.436897 9.122747,13.426482 0.0641,1.689873 -0.69621,3.404103 -1.658827,4.794513 -4.766558,6.88503 -11.402101,10.92693 -17.963063,15.94499 -4.458306,2.98558 -8.8188,6.12232 -13.374571,8.95678 -9.956756,6.19466 -17.495263,10.222 -28.124259,14.91604 -5.823992,2.57212 -15.402818,7.50124 -17.870405,3.87576 -0.861698,-1.26602 -8.1820901,5.30418 -0.609001,6.80401 z"
       sodipodi:nodetypes="sscsccsscsscsssscssccscssssssccssscccscsssss" />
    <path
       style="fill:#000000;stroke-width:0.150286"
       id="path12"
       d="m 52.994537,154.69232 c 24.706172,2.36864 49.474083,3.98022 74.240713,5.55538 36.93345,2.22828 73.87104,4.39464 110.8164,6.41702 9.97126,0.53802 19.94593,1.0094 29.92351,1.41169 3.21055,0.12944 3.3936,-4.41094 0.18306,-4.54038 v 0 c -9.95583,-0.40135 -19.90871,-0.87181 -29.85821,-1.4086 -36.932,-2.02161 -73.85624,-4.18723 -110.77634,-6.41466 -24.74663,-1.57373 -49.49441,-3.18464 -74.180613,-5.55113 -3.203688,-0.24643 -3.552201,4.28426 -0.34852,4.53068 z" />
  </g>
</svg>
